<?xml version="1.0" encoding="UTF-8"?>
<svg id="favicon" xmlns="http://www.w3.org/2000/svg" viewBox="0 0 32 32">
  <defs>
    <style>
      .cls-1 {
        fill: #f5c343;
      }
      .cls-2 {
        fill: #255d48;
      }
      .cls-3 {
        fill: #fff7eb;
        stroke: #003602;
        stroke-miterlimit: 10;
        stroke-width: 0.5px;
      }
      .cls-4 {
        fill: #fff1ba;
      }
    </style>
  </defs>
  <rect class="cls-3" x="1" y="1" width="30" height="30" rx="5" ry="5"/>
  <path class="cls-4" d="M26,15c0,3-1,6-2,8-2,5-6,8-11,10-2,1-4,1-6,1s-5,0-7-1c-7-3-12-10-12-18C-12,4,6,2,18,2c1,0,3,0,4,0C28,3,26,10,26,15Z"/>
  <path class="cls-1" d="M24,20c-2,5-6,8-11,10l0-4,1-1C20,24,23,18,24,17Z"/>
  <path class="cls-1" d="M18,3s0,0-0,1c0,0,0,0-2,0s-5,1-8,4c-3,3-5,8-4,14s5,8,5,8c-2,2-3,5-1,7l1,2C2,36,-2,28,-2,15,-2,4,6,2,18,2c1,0,3,0,4,0Z"/>
  <path class="cls-2" d="M14,26s3,1,7,2c4,0,6,0,7-0s1-0,1-0s0,0-2,1c-1,1-4,2-7,1s-6-1-8-2s-6-0-8-0s-2,0-2,0s0-0,1-1s3-1,5-1c0,0,2-6,2-8c1-2,2-2,2-2c0-0-0-0-1-1s-1-1-1-2s1-2,2-2s2,0,2,1s0,1,1,1s0,0,0,0s0,1-0,2s-1,0-1,0s-0,0-0,0s0,0,0,1s0,3,0,4c0,0,0-0,1-2s2-5,2-6c1-1,2-2,2-2c0-0-0-1-0-1c0-0-1-1-2-2s1-3,2-3s2,0,3,1s0,1,1,2s0,0,0,0c0,0-0,0-0,0c0,0,0,0,0,0s0,0,0,0s0,1-0,1c0,0-1,1-1,1s0,1,1,1c1-0,2-1,3-2c1-1,3-4,3-4c0-1,0-1,0-1c0-0,0,0,0,1c0,0,0-0,1-1s1-1,1-1s0,0,0,2s-1,3-2,5c-1,2-1,2-2,4c-1,1-2,2-2,3c0,0-0,3-0,5c0,2-0,6-0,8c-2,0-5-0-7-1c1-3,2-6,2-7c-1,2-2,5-4,7Z"/>
</svg>