<?xml version="1.0" encoding="UTF-8"?>
<svg id="app-icon" xmlns="http://www.w3.org/2000/svg" viewBox="0 0 180 180">
  <defs>
    <style>
      .cls-1 {
        fill: #f5c343;
      }
      .cls-2 {
        fill: #585905;
      }
      .cls-3 {
        fill: #fff7eb;
        stroke: #003602;
        stroke-miterlimit: 10;
        stroke-width: 2px;
      }
      .cls-4 {
        fill: #255d48;
      }
      .cls-5 {
        fill: #fff1ba;
      }
    </style>
  </defs>
  <rect class="cls-3" x="5" y="5" width="170" height="170" rx="30" ry="30"/>
  <path class="cls-5" d="M160,83c0,11-2,21-7,31-8,17-23,31-41,37-8,3-16,4-24,4s-17-2-25-5c-27-10-46-36-46-67c0-40,32-72,71-72c5,0,9,0,14,1C135,18,160,47,160,83Z"/>
  <path class="cls-1" d="M153,114c-8,17-23,31-41,37l1-13,3-4c22-2,34-17,36-20Z"/>
  <path class="cls-1" d="M103,13s0,1-1,2c0,1,0,0-8,1s-20,5-32,16c-12,12-20,31-15,52s19,30,19,30c-6,7-11,20-6,28l3,8C36,140,25,114,25,83c0-40,32-72,71-72c5,0,9,0,14,1Z"/>
  <path class="cls-4" d="M80,151s12,5,26,7c14,2,23-1,26-2s5-2,5-2s-1,2-6,5c-5,3-15,6-26,5s-23-4-32-7s-22-3-29-1s-8,2-9,2s1-2,5-4s12-4,17-4c0,0,7-22,9-28c3-6,6-6,6-8c0-1-1-2-2-3s-3-4-3-8s3-7,7-8s6,1,7,4s2,3,2,4s1,0,1,2s0,5-1,6s-2,2-3,2s-1,1-2,2s1,2,2,5s2,12,2,15c0,0,1-1,4-8s6-19,8-24c2-5,6-7,6-9c0-2,0-3-1-4c-1-1-5-3-6-9s3-9,6-11s7-1,9,3s2,5,3,6s2,1,2,2c0,1,0,1,0,1c0,0,0,1,0,1s1,3-1,4c-1,1-3,2-4,3s1,3,3,2c2,0,7-3,12-8c5-5,9-13,10-17c1-3,1-5,1-5c1,0,1,2,2,2c0,0,1-1,3-5s3-5,3-5s2,1,1,6s-4,12-7,18c-3,6-5,9-9,14c-4,5-9,9-9,10c0,1-1,12-1,20c0,8-1,23-2,30c-7,0-18-2-27-4c3-10,6-21,6-27c-3,8-9,17-15,26Z"/>
  <path class="cls-4" d="M79,164s9,3,15,4s8,1,8,1s0,1-3,2s-12,1-23-2s-17-5-22-5s-6,1-7,0s7-3,14-3s12,2,18,3Z"/>
  <g>
    <path class="cls-2" d="M133,186s0-2,2-3c2-1,4,0,6,1c2,1,4,2,6,2s2,0,2,1c0,1-1,2-1,2s-1,0-2,0s-5,2-7,3c-2,1-5,2-7,1s-4-1-4-6s0-10-1-11s1-2,1-2c0,0,1,4,1,9s0,7,3,8c2,0,6-1,8-1c2-1,4-2,4-2c0,0-2-1-4-2c-2-1-3-1-4,0s-1,0-1,0Z"/>
    <path class="cls-2" d="M121,182s2,2,2,4s1,4-3,5c-3,1-7,1-8-3c0,0,0,0-1,1s-2,2-5,2s-4-1-4-3c0-2,1-3,1-3c0,0,0,1,0,2c0,1,1,2,3,1s5-1,4-3s-2-5-1-6c0-1,1-2,1-2c0,0,0,2,1,5c1,2,1,6,2,7s6,0,7-1c0-1-1-3-1-4c-1-1-1-1,1-3Z"/>
    <path class="cls-2" d="M79,196s-1-3,0-5s3-1,5-1s2-1,3-3s2-4,4-4s3,2,4,5c0,2-1,4-2,4s-3-1-4-2s-1-1-2,0s-1,2-3,2s-3,0-4,1s0,3,0,3s1,1,0,2s-1,2-2,1s-3-2-3-5c0-2,0-3,0-3c0,0-1,1-3,1s-3-1-4-3c0,0-1,3-5,3s-4-2-5-6s-1-10-1-11s1-2,1-2c0,0,1,6,1,10s0,6,3,6s3-1,4-3s1-2,1-2s1,0,1,1s-1,2,0,3s3,2,5,1s3-4,3-4s1-1,1,0s-1,3-2,4s-2,5,2,6Zm13-7c1,0,1-1,1-2s-1-2-3-2s-2,2-2,2c1,1,3,2,4,2Z"/>
    <path class="cls-2" d="M53,181s1,2,2,4s0,4-1,5s-6,2-12,2s-8-2-8-5s1-5,1-5s1,0,1,0c0,0-1,2-1,4s1,3,6,4s11-1,12-1s1-1,1-2s-1-2-1-3s1-2,1-2Z"/>
    <rect class="cls-2" x="138" y="194" width="2" height="2" rx="1" ry="1" transform="rotate(-45 139 195)"/>
    <rect class="cls-2" x="119" y="176" width="3" height="3" rx="1" ry="1" transform="rotate(-45 120.5 177.5)"/>
    <rect class="cls-2" x="44" y="196" width="3" height="3" rx="1" ry="1" transform="rotate(-45 45.5 197.5)"/>
    <rect class="cls-2" x="141" y="194" width="2" height="2" rx="1" ry="1" transform="rotate(-45 142 195)"/>
    <rect class="cls-2" x="65" y="179" width="2" height="2" rx="1" ry="1" transform="rotate(-45 66 180)"/>
    <rect class="cls-2" x="68" y="179" width="2" height="2" rx="1" ry="1" transform="rotate(-45 69 180)"/>
    <rect class="cls-2" x="140" y="197" width="2" height="2" rx="1" ry="1" transform="rotate(-45 141 198)"/>
  </g>
</svg>