<?xml version="1.0" encoding="UTF-8"?>
<svg id="apple-touch-icon" xmlns="http://www.w3.org/2000/svg" viewBox="0 0 180 180">
  <defs>
    <style>
      .cls-1 {
        fill: #f5c343;
      }
      .cls-2 {
        fill: #585905;
      }
      .cls-3 {
        fill: #fff7eb;
        stroke: #003602;
        stroke-miterlimit: 10;
        stroke-width: 2px;
      }
      .cls-4 {
        fill: #255d48;
      }
      .cls-5 {
        fill: #fff1ba;
      }
    </style>
  </defs>
  <rect class="cls-3" x="5" y="5" width="170" height="170" rx="38" ry="38"/>
  <path class="cls-5" d="M160,83c0,11-2,21-7,31-8,17-23,31-41,37-8,3-16,4-24,4s-17-2-25-5c-27-10-46-36-46-67c0-40,32-72,71-72c5,0,9,0,14,1C135,18,160,47,160,83Z"/>
  <path class="cls-1" d="M153,114c-8,17-23,31-41,37l1-13,3-4c22-2,34-17,36-20Z"/>
  <path class="cls-1" d="M103,13s0,1-1,2c0,1,0,0-8,1s-20,5-32,16c-12,12-20,31-15,52s19,30,19,30c-6,7-11,20-6,28l3,8C36,140,25,114,25,83c0-40,32-72,71-72c5,0,9,0,14,1Z"/>
  <path class="cls-4" d="M80,151s12,5,26,7c14,2,23-1,26-2s5-2,5-2s-1,2-6,5c-5,3-15,6-26,5s-23-4-32-7s-22-3-29-1s-8,2-9,2s1-2,5-4s12-4,17-4c0,0,7-22,9-28c3-6,6-6,6-8c0-1-1-2-2-3s-3-4-3-8s3-7,7-8s6,1,7,4s2,3,2,4s1,0,1,2s0,5-1,6s-2,2-3,2s-1,1-2,2s1,2,2,5s2,12,2,15c0,0,1-1,4-8s6-19,8-24c2-5,6-7,6-9c0-2,0-3-1-4c-1-1-5-3-6-9s3-9,6-11s7-1,9,3s2,5,3,6s2,1,2,2c0,1,0,1,0,1c0,0,0,1,0,1s1,3-1,4c-1,1-3,2-4,3s1,3,3,2c2,0,7-3,12-8c5-5,9-13,10-17c1-3,1-5,1-5c1,0,1,2,2,2c0,0,1-1,3-5s3-5,3-5s2,1,1,6s-4,12-7,18c-3,6-5,9-9,14c-4,5-9,9-9,10c0,1-1,12-1,20c0,8-1,23-2,30c-7,0-18-2-27-4c3-10,6-21,6-27c-3,8-9,17-15,26Z"/>
</svg>