<?xml version="1.0" encoding="UTF-8"?>
<svg id="Layer_2" data-name="Layer 2" xmlns="http://www.w3.org/2000/svg" viewBox="0 0 1235.56 1500">
  <defs>
    <style>
      .cls-1 {
        fill: #f5c343;
      }

      .cls-2 {
        fill: #585905;
      }

      .cls-3 {
        fill: #fff7eb;
        stroke: #003602;
        stroke-miterlimit: 10;
        stroke-width: 10px;
      }

      .cls-4 {
        fill: #255d48;
      }

      .cls-5 {
        fill: #fff1ba;
      }
    </style>
  </defs>
  <rect class="cls-3" x="28.81" y="36.64" width="1177.93" height="1426.71" rx="208.29" ry="208.29"/>
  <path class="cls-5" d="M1115.65,578.85c0,75.84-16.86,147.73-47.03,212.07-55.85,119.21-157.35,212.54-281.85,257.26-52.14,18.73-108.31,28.93-166.86,28.93s-119.6-11.1-173.63-31.42c-188.16-70.72-322.11-253.06-322.11-466.84,0-275.18,221.95-498.26,495.74-498.26,33.19,0,65.63,3.28,96.99,9.53,227.35,45.33,398.75,246.91,398.75,488.73Z"/>
  <path class="cls-1" d="M1068.62,790.92c-55.85,119.21-157.35,212.54-281.85,257.26l7.69-92.25,23.49-26.31c152.09-11.56,236.29-118.79,250.67-138.7Z"/>
  <path class="cls-1" d="M716.9,90.12s-2.16,7.6-4.94,14.02c-2.79,6.43-1.08,1.93-53.79,7.72-52.71,5.78-141.43,33.43-222.43,113.78-81,80.36-136.28,217.93-101.57,365.15,34.71,147.21,132.43,206.35,132.43,206.35-43.72,49.08-77.92,136.37-38.57,193.5l18.25,55.05c-188.16-70.72-322.11-253.06-322.11-466.84,0-275.18,221.95-498.26,495.74-498.26,33.19,0,65.63,3.28,96.99,9.53Z"/>
  <path class="cls-4" d="M559.17,1047.86s81.96,37.93,178.07,51.75c96.11,13.82,158.46-5.46,183.21-14.14s33.21-16.82,34.71-14.25-9.64,15.64-43.29,35.14c-33.64,19.5-102,42.11-182.04,35.36s-162.32-30.92-224.68-46.32-154.07-18.4-203.57-8.54-57,17.14-63,12.86,4.93-12.64,32.14-25.29,81-28.29,120.64-29.14c0,0,45.58-153.53,63.32-196.07,18.32-43.93,41.36-43.08,40.82-54.32-.43-8.89-5.57-11.46-15.86-20.68s-22.93-24.64-20.79-52.71,21.86-49.5,48.86-56.14,43.93,7.07,51.43,25.07,11.36,22.93,16.07,26.57,7.5,3,6.86,11.79-1.93,31.5-7.71,44.57-15.43,13.29-21.43,14.57-10.07,4.07-10.71,12,6.64,11.36,13.07,36.21,13.29,80.36,14.14,102c0,0,6.64-6.21,25.5-55.71s40.93-132.43,55.93-166.5c15-34.07,41.14-47.57,43.5-61.5,2.36-13.93-1.07-20.14-9.64-27.43-8.57-7.29-37.93-23.57-41.14-62.14s21-63.64,44.57-73.93,50.79-3.64,64.5,20.14,11.79,32.36,20.57,40.07,13.71,10.07,11.79,14.14c-1.93,4.07-6.8,4.93-5.2,8.14,1.61,3.21,3.54,4.5,2.73,9.16-.8,4.66-.32,6.75,1.29,7.88s4.34,18.32-3.86,27.64c-8.2,9.32-23.3,16.55-24.59,22.66s4.82,17.52,18.32,15.75c13.5-1.77,45.8-21.37,82.45-54.8,36.64-33.43,63-91.76,67.18-115.47,4.18-23.71,4.18-32.18,9.75-32.6,5.57-.43,9.43,10.93,10.71,17.36,0,0,6.43-8.79,21.43-35.57s17.57-35.79,21.64-35.14,11.79,8.57,7.29,42.86-24.54,81.11-46.39,124.5c-21.86,43.39-33.75,61.07-60.75,96.43-27,35.36-60.11,62.36-62.04,68.14-1.93,5.79-3.54,81-4.82,138.86-1.29,57.86-7.39,160.07-14.79,210.54-45.73,1.61-121.82-10.61-184.18-26.36,19.21-71.56,39.59-144.95,40.82-188.68-21.59,52.93-61.34,116.59-102.86,181.29Z"/>
  <path class="cls-4" d="M553.06,1141.39s60.43,20.57,101.25,26.36,54.64,3.86,57.54,4.18,2.46,7.29-21.11,11.57-86.25,6.75-159.54-16.39-121.82-31.5-155.57-31.82-45,4.18-45.64,0,47.25-20.57,98.36-18,86.84,12.36,124.71,24.11Z"/>
  <g>
    <path class="cls-2" d="M930.1,1293.21s1.5-13.5,14.14-18.86c12.64-5.36,27.43,1.07,41.57,7.29,14.14,6.21,30,12.43,38.79,13.07s16.71-1.5,15,4.29c-1.71,5.79-5.79,12.21-9.21,12.21s-4.29-3-13.5-2.36-33.43,12.43-50.79,20.14c-17.36,7.71-33.64,10.71-49.93,9.64s-28.5-8.57-30.21-38.79-3-72.43-4.5-76.07,9.64-16.93,9.64-16.93c0,0,3.64,28.93,4.71,61.07s.64,50.79,17.79,54.21c17.14,3.43,44.57-3.43,57.64-7.93,13.07-4.5,27-11.57,27-11.57,0,0-16.29-5.57-29.14-10.5-12.86-4.93-23.36-6.21-29.79-2.14s-9.21,3.21-9.21,3.21Z"/>
    <path class="cls-2" d="M844.38,1269.64s13.07,16.71,13.5,29.14,3.64,31.07-19.71,36.64c-23.36,5.57-50.14,6.43-54-22.5,0,0-2.79,2.14-4.07,7.93s-10.93,14.36-33.43,16.29-27.07-6.73-27.11-18.32c-.05-15.91,4.39-19.39,4.39-19.39,0,0,2.52,3.8,3.16,10.71,.64,6.91,5.3,10.93,22.02,9.96s33.11-9,31.02-23.46-10.61-37.77-9.16-43.07c1.45-5.3,6.43-12.05,9.32-13.98,0,0,2.41,16.39,6.11,32.46,3.7,16.07,5.95,42.11,16.23,47.73s45.16,.8,46.77-6.11c1.61-6.91-5.3-20.57-9.48-25.39-4.18-4.82-4.12-9.32,4.45-18.64Z"/>
    <path class="cls-2" d="M550.81,1366.71s-6.86-21.21,2.57-34.07,21.64-9.86,32.36-10.5,16.71-6,21.86-19.93,13.29-27.21,25.29-28.29,24,17.36,24.64,33c.64,15.64-8.57,28.29-15.43,27.64s-19.93-6.43-25.93-11.57-9.43-4.71-11.14-.64-7.29,15.27-21.11,15.75-20.09-1.29-24.91,4.82-3.38,18.48,.48,23.79,6.11,7.88,2.41,14.46-7.23,10.77-14.14,4.98-17.76-16.17-20.25-32.14c-1.93-12.38,0-22.62,0-22.62,0,0-8.52,7.03-22.98,6.55s-22.82-6.75-26.36-18.48c0,0-8.36,19.29-32.95,18.8s-30.48-15.05-32.41-41.2-5.36-70.71-4.71-74.36,9.86-15.21,9.86-15.21c0,0,4.5,44.36,5.14,70.5s1.29,42.86,20.79,44.14,24.21-8.36,28.93-18.86,3.43-16.71,7.07-17.36,7.29-.64,6,4.07-3.86,12.64-1.29,20.36,18.21,16.71,35.57,10.29,20.79-25.5,20.79-28.07,9.21-4.5,9.43,1.29-6.43,21.86-12.43,28.29-10.93,34.5,12.86,44.57Zm89.84-47.89c6.43,1.29,8.36-4.66,4.98-14.46s-9.32-15.91-18.16-15.75-13.3,14.79-13.3,14.79c6.63,8.68,20.05,14.14,26.48,15.43Z"/>
    <path class="cls-2" d="M373.22,1267.07s10.45,14.63,11.41,28.77-.16,28.13-9.48,32.46-44.68,14.62-83.41,13.98-58.02-13.5-59.46-31.82,6.43-36.96,8.84-37.29,6.27,.16,6.27,.16c0,0-6.75,14.63-5.95,24.75s9.96,24.27,40.82,27.32,76.98-7.39,85.66-9.8,9.96-8.04,7.23-16.07-9.96-17.68-9.8-20.57,5.95-11.41,7.87-11.89Z"/>
    <rect class="cls-2" x="965.61" y="1351.52" width="13.95" height="13.95" rx="3.59" ry="3.59" transform="translate(-686.26 1159.35) rotate(-47.55)"/>
    <rect class="cls-2" x="827.31" y="1224.07" width="18.63" height="18.63" rx="5.14" ry="5.14" transform="translate(-638.15 1018.36) rotate(-47.55)"/>
    <rect class="cls-2" x="304.54" y="1364.9" width="18.63" height="18.63" rx="5.14" ry="5.14" transform="translate(-912.02 678.38) rotate(-47.55)"/>
    <rect class="cls-2" x="986.51" y="1349.86" width="13.95" height="13.95" rx="3.59" ry="3.59" transform="translate(-678.24 1174.23) rotate(-47.55)"/>
    <rect class="cls-2" x="449.98" y="1248.07" width="16.04" height="16.04" rx="3.59" ry="3.59" transform="translate(-778 746.33) rotate(-47.55)"/>
    <rect class="cls-2" x="473.43" y="1246.65" width="16.04" height="16.04" rx="3.59" ry="3.59" transform="translate(-769.32 763.18) rotate(-47.55)"/>
    <rect class="cls-2" x="978.14" y="1371.35" width="13.95" height="13.95" rx="3.59" ry="3.59" transform="translate(-696.82 1175.05) rotate(-47.55)"/>
  </g>
</svg>