<svg xmlns="http://www.w3.org/2000/svg" viewBox="0 0 800 300">
  <!-- Background with subtle pattern -->
  <rect width="800" height="300" fill="#14221C"/>
  
  <!-- Geometric Islamic pattern background -->
  <defs>
    <pattern id="pattern" x="0" y="0" width="40" height="40" patternUnits="userSpaceOnUse">
      <rect width="40" height="40" fill="#14221C"/>
      <path d="M20 0 L40 20 L20 40 L0 20 Z" fill="#0B5D1E" opacity="0.1"/>
    </pattern>
  </defs>
  <rect width="800" height="300" fill="url(#pattern)"/>
  
  <!-- Central arch/mihrab design -->
  <g transform="translate(400, 150)">
    <!-- Arch outline -->
    <path d="M-80 100 L-80 20 Q-80 -20 -40 -20 L40 -20 Q80 -20 80 20 L80 100" 
          stroke="#F4C430" stroke-width="3" fill="none"/>
    <!-- Inner arch -->
    <path d="M-60 100 L-60 30 Q-60 0 -30 0 L30 0 Q60 0 60 30 L60 100" 
          stroke="#F4C430" stroke-width="2" fill="none" opacity="0.6"/>
    
    <!-- Decorative elements -->
    <circle cx="0" cy="0" r="8" fill="#F4C430" opacity="0.8"/>
    <circle cx="-30" cy="20" r="4" fill="#F4C430" opacity="0.6"/>
    <circle cx="30" cy="20" r="4" fill="#F4C430" opacity="0.6"/>
  </g>
  
  <!-- Cultural motifs -->
  <g fill="#F4C430" opacity="0.4">
    <!-- Left side ornaments -->
    <circle cx="150" cy="100" r="3"/>
    <circle cx="170" cy="120" r="2"/>
    <circle cx="130" cy="140" r="2.5"/>
    
    <!-- Right side ornaments -->
    <circle cx="650" cy="100" r="3"/>
    <circle cx="630" cy="120" r="2"/>
    <circle cx="670" cy="140" r="2.5"/>
  </g>
  
  <!-- Calligraphic flourishes -->
  <g stroke="#F4C430" stroke-width="2" fill="none" opacity="0.5">
    <path d="M100 200 Q150 180 200 200 Q250 220 300 200"/>
    <path d="M500 200 Q550 180 600 200 Q650 220 700 200"/>
  </g>
</svg>
