<svg xmlns="http://www.w3.org/2000/svg" viewBox="0 0 800 300">
  <!-- Warm heritage background -->
  <rect width="800" height="300" fill="#FAFBF8"/>
  
  <!-- Vintage paper texture -->
  <defs>
    <pattern id="vintage" x="0" y="0" width="50" height="50" patternUnits="userSpaceOnUse">
      <rect width="50" height="50" fill="#FAFBF8"/>
      <circle cx="10" cy="10" r="0.5" fill="#14221C" opacity="0.1"/>
      <circle cx="30" cy="25" r="0.3" fill="#14221C" opacity="0.1"/>
      <circle cx="45" cy="40" r="0.4" fill="#14221C" opacity="0.1"/>
    </pattern>
  </defs>
  <rect width="800" height="300" fill="url(#vintage)"/>
  
  <!-- Ancient manuscript border -->
  <rect x="50" y="50" width="700" height="200" 
        stroke="#0B5D1E" stroke-width="3" fill="none" opacity="0.6"/>
  <rect x="70" y="70" width="660" height="160" 
        stroke="#F4C430" stroke-width="2" fill="none" opacity="0.8"/>
  
  <!-- Classical column -->
  <g transform="translate(120, 100)">
    <!-- Column base -->
    <rect x="-15" y="120" width="30" height="8" fill="#0B5D1E"/>
    <!-- Column shaft -->
    <rect x="-8" y="30" width="16" height="90" fill="#0B5D1E" opacity="0.8"/>
    <!-- Column capital -->
    <rect x="-12" y="25" width="24" height="8" fill="#0B5D1E"/>
    <rect x="-10" y="20" width="20" height="8" fill="#F4C430"/>
  </g>
  
  <!-- Ornate manuscript illumination -->
  <g transform="translate(600, 150)">
    <!-- Central mandala -->
    <circle cx="0" cy="0" r="30" stroke="#0B5D1E" stroke-width="2" fill="none"/>
    <circle cx="0" cy="0" r="20" stroke="#F4C430" stroke-width="1" fill="none"/>
    <circle cx="0" cy="0" r="10" fill="#F4C430" opacity="0.6"/>
    
    <!-- Decorative petals -->
    <g stroke="#0B5D1E" stroke-width="1" fill="#F4C430" opacity="0.4">
      <ellipse cx="0" cy="-25" rx="5" ry="10"/>
      <ellipse cx="25" cy="0" rx="10" ry="5"/>
      <ellipse cx="0" cy="25" rx="5" ry="10"/>
      <ellipse cx="-25" cy="0" rx="10" ry="5"/>
    </g>
  </g>
  
  <!-- Calligraphic text simulation -->
  <g fill="#14221C" opacity="0.3">
    <rect x="200" y="120" width="100" height="3"/>
    <rect x="200" y="135" width="120" height="3"/>
    <rect x="200" y="150" width="80" height="3"/>
    <rect x="200" y="165" width="110" height="3"/>
    
    <rect x="350" y="120" width="90" height="3"/>
    <rect x="350" y="135" width="100" height="3"/>
    <rect x="350" y="150" width="85" height="3"/>
  </g>
  
  <!-- Corner flourishes -->
  <g stroke="#F4C430" stroke-width="2" fill="none" opacity="0.6">
    <path d="M70 70 Q85 55 100 70"/>
    <path d="M700 70 Q715 55 730 70"/>
    <path d="M70 230 Q85 245 100 230"/>
    <path d="M700 230 Q715 245 730 230"/>
  </g>
</svg>
