<svg xmlns="http://www.w3.org/2000/svg" viewBox="0 0 800 300">
  <!-- Background -->
  <rect width="800" height="300" fill="#FAFBF8"/>
  
  <!-- Gradient overlay -->
  <defs>
    <linearGradient id="wisdomGrad" x1="0%" y1="0%" x2="100%" y2="100%">
      <stop offset="0%" style="stop-color:#0B5D1E;stop-opacity:0.1" />
      <stop offset="100%" style="stop-color:#F4C430;stop-opacity:0.2" />
    </linearGradient>
  </defs>
  <rect width="800" height="300" fill="url(#wisdomGrad)"/>
  
  <!-- Large crescent moon -->
  <path d="M150 50 C150 100, 100 150, 50 150 C80 150, 100 130, 100 100 C100 70, 80 50, 50 50 C100 50, 150 70, 150 50 Z" fill="#F4C430" opacity="0.8"/>
  
  <!-- Tree of wisdom -->
  <g transform="translate(600, 100)">
    <!-- Trunk -->
    <rect x="-8" y="80" width="16" height="60" fill="#0B5D1E"/>
    <!-- Branches -->
    <path d="M0 80 L-30 60 M0 80 L30 60 M0 70 L-20 50 M0 70 L20 50" stroke="#0B5D1E" stroke-width="4" fill="none"/>
    <!-- Leaves -->
    <circle cx="-30" cy="60" r="15" fill="#0B5D1E" opacity="0.8"/>
    <circle cx="30" cy="60" r="15" fill="#0B5D1E" opacity="0.8"/>
    <circle cx="-20" cy="50" r="12" fill="#0B5D1E" opacity="0.6"/>
    <circle cx="20" cy="50" r="12" fill="#0B5D1E" opacity="0.6"/>
    <circle cx="0" cy="45" r="18" fill="#0B5D1E" opacity="0.7"/>
  </g>
  
  <!-- Flowing text elements -->
  <g fill="#14221C" opacity="0.3">
    <rect x="250" y="120" width="60" height="2"/>
    <rect x="250" y="130" width="80" height="2"/>
    <rect x="250" y="140" width="70" height="2"/>
    <rect x="250" y="160" width="90" height="2"/>
    <rect x="250" y="170" width="75" height="2"/>
  </g>
  
  <!-- Decorative dots -->
  <g fill="#F4C430" opacity="0.5">
    <circle cx="200" cy="80" r="2"/>
    <circle cx="220" cy="100" r="3"/>
    <circle cx="180" cy="120" r="2"/>
    <circle cx="240" cy="140" r="2.5"/>
  </g>
</svg>
