<svg xmlns="http://www.w3.org/2000/svg" width="1600" height="900" viewBox="0 0 1600 900">
  <rect width="1600" height="900" fill="#F6F3EB"/>
  <defs>
    <linearGradient id="waveGrad" x1="0" y1="0" x2="0" y2="1">
      <stop offset="0%" stop-color="#84C7A8" stop-opacity="0.15"/>
      <stop offset="100%" stop-color="#177F5B" stop-opacity="0.1"/>
    </linearGradient>
  </defs>
  <path d="M0,620 C220,590 380,670 640,640 C900,610 1060,700 1300,670 C1460,650 1540,630 1600,640 L1600,900 L0,900 Z"
        fill="url(#waveGrad)"/>
  <path d="M0,690 C260,730 500,650 760,690 C1020,730 1250,640 1600,700 L1600,900 L0,900 Z"
        fill="#177F5B" fill-opacity="0.12"/>
  <path d="M0,760 C260,800 560,740 880,780 C1200,820 1420,750 1600,800 L1600,900 L0,900 Z"
        fill="#0B5D3E" fill-opacity="0.10"/>
  <!-- moon glow tucked behind horizon -->
  <radialGradient id="lowGlow" cx="20%" cy="80%" r="45%">
    <stop offset="0%" stop-color="#F2D37A" stop-opacity="0.7"/>
    <stop offset="60%" stop-color="#E2B23A" stop-opacity="0.25"/>
    <stop offset="100%" stop-color="#F6F3EB" stop-opacity="0"/>
  </radialGradient>
  <circle cx="360" cy="720" r="340" fill="url(#lowGlow)"/>
</svg>