<svg xmlns="http://www.w3.org/2000/svg" viewBox="0 0 800 300">
  <!-- Dynamic gradient background -->
  <defs>
    <linearGradient id="youthGrad" x1="0%" y1="0%" x2="100%" y2="100%">
      <stop offset="0%" style="stop-color:#F4C430;stop-opacity:1" />
      <stop offset="50%" style="stop-color:#FAFBF8;stop-opacity:1" />
      <stop offset="100%" style="stop-color:#0B5D1E;stop-opacity:1" />
    </linearGradient>
  </defs>
  
  <!-- Background -->
  <rect width="800" height="300" fill="url(#youthGrad)"/>
  
  <!-- Rising sun/moon -->
  <circle cx="700" cy="100" r="50" fill="#F4C430" opacity="0.8"/>
  <circle cx="700" cy="100" r="35" fill="#FAFBF8" opacity="0.6"/>
  
  <!-- Mountain silhouettes -->
  <polygon points="0,200 100,120 200,160 300,100 400,140 500,80 600,120 700,90 800,110 800,300 0,300" 
           fill="#0B5D1E" opacity="0.7"/>
  
  <!-- Flying birds -->
  <g stroke="#14221C" stroke-width="2" fill="none" opacity="0.6">
    <path d="M200 80 Q205 75 210 80 Q215 85 220 80"/>
    <path d="M250 90 Q255 85 260 90 Q265 95 270 90"/>
    <path d="M180 100 Q185 95 190 100 Q195 105 200 100"/>
  </g>
  
  <!-- Energy burst elements -->
  <g stroke="#F4C430" stroke-width="3" fill="none" opacity="0.8">
    <path d="M400 50 L420 70"/>
    <path d="M410 40 L410 80"/>
    <path d="M380 60 L440 60"/>
    <path d="M390 45 L430 75"/>
    <path d="M390 75 L430 45"/>
  </g>
  
  <!-- Abstract youth figures -->
  <g transform="translate(150, 180)" fill="#14221C" opacity="0.5">
    <!-- Figure 1 -->
    <circle cx="0" cy="-30" r="8"/>
    <rect x="-6" y="-20" width="12" height="25" rx="3"/>
    <rect x="-15" y="-10" width="8" height="3" rx="1" transform="rotate(30)"/>
    <rect x="7" y="-10" width="8" height="3" rx="1" transform="rotate(-30)"/>
    
    <!-- Figure 2 -->
    <circle cx="40" cy="-25" r="8"/>
    <rect x="34" y="-15" width="12" height="25" rx="3"/>
    <rect x="25" y="-5" width="8" height="3" rx="1" transform="rotate(45)"/>
    <rect x="47" y="-5" width="8" height="3" rx="1" transform="rotate(-20)"/>
  </g>
</svg>
